<mxfile host="app.diagrams.net" modified="2021-10-22T06:49:24.456Z" agent="5.0 (Windows NT 10.0; Win64; x64) AppleWebKit/537.36 (KHTML, like Gecko) Chrome/94.0.4606.81 Safari/537.36" etag="5a_-_l29HUXxXmGozerw" version="15.5.8" type="github">
  <diagram id="kgpKYQtTHZ0yAKxKKP6v" name="Page-1">
    <mxGraphModel dx="981" dy="548" grid="1" gridSize="10" guides="1" tooltips="1" connect="1" arrows="1" fold="1" page="1" pageScale="1" pageWidth="850" pageHeight="1100" math="0" shadow="0">
      <root>
        <mxCell id="0" />
        <mxCell id="1" parent="0" />
        <mxCell id="NxqpUdNHbf62B_l5OheN-15" style="edgeStyle=orthogonalEdgeStyle;rounded=0;orthogonalLoop=1;jettySize=auto;html=1;exitX=1;exitY=1;exitDx=0;exitDy=0;entryX=0;entryY=0;entryDx=0;entryDy=0;" edge="1" parent="1" source="NxqpUdNHbf62B_l5OheN-1" target="NxqpUdNHbf62B_l5OheN-2">
          <mxGeometry relative="1" as="geometry">
            <Array as="points">
              <mxPoint x="150" y="100" />
            </Array>
          </mxGeometry>
        </mxCell>
        <object label="Análisis" Análisis="" DefinicionDeRequisitos="" AnalisisDeRequisitos="" id="NxqpUdNHbf62B_l5OheN-1">
          <mxCell style="rounded=0;whiteSpace=wrap;html=1;" vertex="1" parent="1">
            <mxGeometry x="30" y="30" width="120" height="60" as="geometry" />
          </mxCell>
        </object>
        <mxCell id="NxqpUdNHbf62B_l5OheN-14" style="edgeStyle=orthogonalEdgeStyle;rounded=0;orthogonalLoop=1;jettySize=auto;html=1;exitX=1;exitY=1;exitDx=0;exitDy=0;entryX=0;entryY=0;entryDx=0;entryDy=0;" edge="1" parent="1" source="NxqpUdNHbf62B_l5OheN-2" target="NxqpUdNHbf62B_l5OheN-3">
          <mxGeometry relative="1" as="geometry">
            <Array as="points">
              <mxPoint x="290" y="170" />
            </Array>
          </mxGeometry>
        </mxCell>
        <object label="Diseño" ClasificacionDeRequisitos="" OrganizarArquitecturaDeSoftware="" id="NxqpUdNHbf62B_l5OheN-2">
          <mxCell style="rounded=0;whiteSpace=wrap;html=1;" vertex="1" parent="1">
            <mxGeometry x="170" y="100" width="120" height="60" as="geometry" />
          </mxCell>
        </object>
        <mxCell id="NxqpUdNHbf62B_l5OheN-10" style="edgeStyle=orthogonalEdgeStyle;rounded=0;orthogonalLoop=1;jettySize=auto;html=1;exitX=1;exitY=1;exitDx=0;exitDy=0;entryX=0;entryY=0;entryDx=0;entryDy=0;" edge="1" parent="1" source="NxqpUdNHbf62B_l5OheN-3" target="NxqpUdNHbf62B_l5OheN-4">
          <mxGeometry relative="1" as="geometry">
            <mxPoint x="470" y="230" as="targetPoint" />
            <Array as="points">
              <mxPoint x="430" y="240" />
            </Array>
          </mxGeometry>
        </mxCell>
        <object label="Desarrollo" CodificacionYDepuracionDelSowftare="" DocumentacionInternaExternaYDeUsuario="" id="NxqpUdNHbf62B_l5OheN-3">
          <mxCell style="rounded=0;whiteSpace=wrap;html=1;" vertex="1" parent="1">
            <mxGeometry x="310" y="170" width="120" height="60" as="geometry" />
          </mxCell>
        </object>
        <mxCell id="NxqpUdNHbf62B_l5OheN-11" style="edgeStyle=orthogonalEdgeStyle;rounded=0;orthogonalLoop=1;jettySize=auto;html=1;exitX=1;exitY=1;exitDx=0;exitDy=0;" edge="1" parent="1" source="NxqpUdNHbf62B_l5OheN-4" target="NxqpUdNHbf62B_l5OheN-5">
          <mxGeometry relative="1" as="geometry">
            <Array as="points">
              <mxPoint x="570" y="310" />
            </Array>
          </mxGeometry>
        </mxCell>
        <object label="Pruebas" PruebasDeUnidad="" PruebasIntegrales="" id="NxqpUdNHbf62B_l5OheN-4">
          <mxCell style="rounded=0;whiteSpace=wrap;html=1;" vertex="1" parent="1">
            <mxGeometry x="450" y="240" width="120" height="60" as="geometry" />
          </mxCell>
        </object>
        <mxCell id="NxqpUdNHbf62B_l5OheN-12" style="edgeStyle=orthogonalEdgeStyle;rounded=0;orthogonalLoop=1;jettySize=auto;html=1;exitX=1;exitY=1;exitDx=0;exitDy=0;entryX=0;entryY=0;entryDx=0;entryDy=0;" edge="1" parent="1" source="NxqpUdNHbf62B_l5OheN-5" target="NxqpUdNHbf62B_l5OheN-6">
          <mxGeometry relative="1" as="geometry">
            <Array as="points">
              <mxPoint x="710" y="380" />
            </Array>
          </mxGeometry>
        </mxCell>
        <object label="Implantación" Instalacion="" Entrenamiento="" Evaluacion="" id="NxqpUdNHbf62B_l5OheN-5">
          <mxCell style="rounded=0;whiteSpace=wrap;html=1;" vertex="1" parent="1">
            <mxGeometry x="590" y="310" width="120" height="60" as="geometry" />
          </mxCell>
        </object>
        <mxCell id="NxqpUdNHbf62B_l5OheN-16" style="edgeStyle=orthogonalEdgeStyle;rounded=0;orthogonalLoop=1;jettySize=auto;html=1;exitX=0.5;exitY=1;exitDx=0;exitDy=0;entryX=0.5;entryY=1;entryDx=0;entryDy=0;" edge="1" parent="1" source="NxqpUdNHbf62B_l5OheN-6" target="NxqpUdNHbf62B_l5OheN-1">
          <mxGeometry relative="1" as="geometry">
            <Array as="points">
              <mxPoint x="790" y="460" />
              <mxPoint x="90" y="460" />
            </Array>
          </mxGeometry>
        </mxCell>
        <mxCell id="NxqpUdNHbf62B_l5OheN-17" style="edgeStyle=orthogonalEdgeStyle;rounded=0;orthogonalLoop=1;jettySize=auto;html=1;exitX=0.5;exitY=1;exitDx=0;exitDy=0;" edge="1" parent="1" source="NxqpUdNHbf62B_l5OheN-6" target="NxqpUdNHbf62B_l5OheN-5">
          <mxGeometry relative="1" as="geometry" />
        </mxCell>
        <mxCell id="NxqpUdNHbf62B_l5OheN-18" style="edgeStyle=orthogonalEdgeStyle;rounded=0;orthogonalLoop=1;jettySize=auto;html=1;exitX=0.5;exitY=1;exitDx=0;exitDy=0;entryX=0.5;entryY=1;entryDx=0;entryDy=0;" edge="1" parent="1" source="NxqpUdNHbf62B_l5OheN-6" target="NxqpUdNHbf62B_l5OheN-4">
          <mxGeometry relative="1" as="geometry" />
        </mxCell>
        <mxCell id="NxqpUdNHbf62B_l5OheN-19" style="edgeStyle=orthogonalEdgeStyle;rounded=0;orthogonalLoop=1;jettySize=auto;html=1;exitX=0.5;exitY=1;exitDx=0;exitDy=0;entryX=0.449;entryY=0.987;entryDx=0;entryDy=0;entryPerimeter=0;" edge="1" parent="1" source="NxqpUdNHbf62B_l5OheN-6" target="NxqpUdNHbf62B_l5OheN-3">
          <mxGeometry relative="1" as="geometry" />
        </mxCell>
        <mxCell id="NxqpUdNHbf62B_l5OheN-20" style="edgeStyle=orthogonalEdgeStyle;rounded=0;orthogonalLoop=1;jettySize=auto;html=1;exitX=0.5;exitY=1;exitDx=0;exitDy=0;entryX=0.5;entryY=1;entryDx=0;entryDy=0;" edge="1" parent="1" source="NxqpUdNHbf62B_l5OheN-6" target="NxqpUdNHbf62B_l5OheN-2">
          <mxGeometry relative="1" as="geometry" />
        </mxCell>
        <object label="Mantenimiento" Mejoras="" CorreccionDeErrores="" AñadirFuncionalidades="" id="NxqpUdNHbf62B_l5OheN-6">
          <mxCell style="rounded=0;whiteSpace=wrap;html=1;" vertex="1" parent="1">
            <mxGeometry x="730" y="380" width="120" height="60" as="geometry" />
          </mxCell>
        </object>
      </root>
    </mxGraphModel>
  </diagram>
</mxfile>
